<svg width="284" height="284" viewBox="0 0 284 284" fill="none" xmlns="http://www.w3.org/2000/svg">
<path d="M116.117 30.4824C118.146 26.9653 116.942 22.4681 113.429 20.4375L109.188 17.9864C105.675 15.9558 101.183 17.1609 99.1552 20.6779L49.1141 107.452H7.34483C3.28839 107.452 0 110.744 0 114.805V119.708C0 123.769 3.28839 127.061 7.34483 127.061H18.5837L40.4263 247.855C42.5353 259.519 52.6783 268 64.5175 268H218.258C230.098 268 240.241 259.519 242.35 247.855L264.192 127.061H276.655C280.712 127.061 284 123.769 284 119.708V114.805C284 110.744 280.712 107.452 276.655 107.452H234.71L184.669 20.6779C182.641 17.1609 178.149 15.9558 174.636 17.9864L170.395 20.4375C166.882 22.4681 165.679 26.9653 167.707 30.4824L212.094 107.452H71.7303L116.117 30.4824Z" fill="#B5CAC3"/>
</svg>
