<svg width="284" height="284" viewBox="0 0 284 284" fill="none" xmlns="http://www.w3.org/2000/svg">
<path d="M140.386 48.5232C140.386 46.0455 139.437 43.6621 137.733 41.8634L114.205 17.0237C112.377 15.0934 109.835 14 107.176 14H17.5624C14.6212 14 11.8395 15.3372 10.0022 17.6343L2.12159 27.4868C0.748218 29.2038 0 31.3372 0 33.536V40.4047C0 43.1191 1.13903 45.7089 3.13958 47.543L16.2241 59.5393C18.2246 61.3734 19.3636 63.9632 19.3636 66.6775V73.0431C19.3636 74.5465 19.0137 76.0291 18.3415 77.3737L13.9312 86.1959C13.259 87.5405 12.9091 89.0232 12.9091 90.5265V190.748C12.9091 193.317 11.889 195.78 10.0734 197.596L2.83574 204.835C1.02005 206.651 0 209.114 0 211.682V213.682C0 216.977 1.67515 220.045 4.4463 221.827L18.1446 230.635C20.9158 232.417 22.5909 235.485 22.5909 238.78V252.861C22.5909 254.956 23.2704 256.995 24.5273 258.671L29.3682 265.127C31.1966 267.565 34.0662 269 37.1136 269H257.375C258.964 269 260.529 268.609 261.931 267.861L278.874 258.823C282.029 257.14 284 253.855 284 250.278V238.78C284 235.485 282.325 232.417 279.554 230.635L265.855 221.827C263.084 220.045 261.409 216.977 261.409 213.682V211.682C261.409 209.114 262.429 206.651 264.245 204.835L271.482 197.596C273.298 195.78 274.318 193.317 274.318 190.748V90.5265C274.318 89.0232 274.668 87.5405 275.34 86.1959L279.751 77.3737C280.423 76.0291 280.773 74.5465 280.773 73.0431V66.6775C280.773 63.9632 279.634 61.3734 277.633 59.5393L264.549 47.543C262.548 45.7089 261.409 43.1191 261.409 40.4047V33.1211C261.409 31.1908 262.066 29.3181 263.272 27.8108C267.723 22.245 263.761 14 256.635 14H178.777C175.921 14 173.211 15.2611 171.371 17.446L150.731 41.9612C149.261 43.7071 148.455 45.9163 148.455 48.1987V57.7252C148.455 60.3168 150.555 62.4177 153.146 62.4177C154.283 62.4177 155.38 62.0052 156.236 61.2567L165.08 53.5162C166.845 51.9716 169.111 51.1203 171.456 51.1203H173.49C176.057 51.1203 178.52 52.1405 180.336 53.9565L189.187 62.8093C191.003 64.6253 192.023 67.0884 192.023 69.6566V75.051C192.023 77.3164 191.229 79.51 189.779 81.2503L178.083 95.2875C176.664 96.9911 175.886 99.1385 175.886 101.356V104.602C175.886 108.045 178.677 110.835 182.119 110.835C185.729 110.835 188.595 113.901 187.948 117.454C184.957 133.874 174.367 157.639 148.455 157.639H138.773C115.153 157.639 104.518 133.952 101.104 117.535C100.365 113.98 103.203 110.835 106.833 110.835C110.214 110.835 112.955 108.094 112.955 104.713V101.356C112.955 99.1385 112.177 96.9911 110.758 95.2875L99.0622 81.2503C97.6122 79.51 96.8182 77.3164 96.8182 75.051V69.6566C96.8182 67.0884 97.8382 64.6253 99.6539 62.8093L108.505 53.9565C110.321 52.1405 112.783 51.1203 115.351 51.1203H117.385C119.73 51.1203 121.996 51.9716 123.76 53.5162L132.605 61.2567C133.46 62.0052 134.558 62.4177 135.695 62.4177C138.286 62.4177 140.386 60.3168 140.386 57.7252V48.5232Z" fill="#F4DF9E"/>
</svg>
