<svg width="284" height="284" viewBox="0 0 284 284" fill="none" xmlns="http://www.w3.org/2000/svg">
<path d="M1 63V80.3869C1 81.2326 1.50958 81.9782 2.30492 82.2657C33.4174 93.513 93.1395 120.645 93.1395 143.095C93.1395 165.534 33.4688 191.235 2.34504 201.752C1.52904 202.027 1 202.784 1 203.645V221C1 222.105 1.89543 223 3 223H182.655C183.557 223 184.347 222.397 184.585 221.527L187.206 211.935C187.374 211.321 187.803 210.833 188.395 210.602C220.861 197.969 284 167.381 284 143.095C284 118.819 220.921 88.2493 188.441 75.6049C187.823 75.3642 187.383 74.8425 187.234 74.1959L184.54 62.5494C184.331 61.6424 183.523 61 182.592 61H3C1.89543 61 1 61.8954 1 63Z" fill="#D0B7A6"/>
</svg>
