<svg id="Layer_1" data-name="Layer 1" xmlns="http://www.w3.org/2000/svg" viewBox="0 0 384.12 145.62"><defs><style>.cls-1{fill:#fff;}</style></defs><path class="cls-1" d="M195.54,95a6.64,6.64,0,0,0-1.13,0,16.19,16.19,0,0,1-7.55,0c-1-.24-1.19.49-1.43,1-.61,1.43-1.1,2.92-1.63,4.38q-1.61,4.32-3.19,8.65a2.38,2.38,0,0,0-.31,1c.27,2.21-1,4-1.74,5.86-1.44,3.61-3,7.2-4.71,10.67-1.5,3-3.26,5.84-5,8.67a8.14,8.14,0,0,1-6.5,3.64,23.63,23.63,0,0,1-13-2c-2.36-1.16-3.51-3.32-4.2-5.77a16.24,16.24,0,0,0-.86-2c-.43.57-.87,1.12-1.27,1.71-1.11,1.64-2.19,3.3-3.29,4.95a7.67,7.67,0,0,1-5.9,3.14,23.68,23.68,0,0,1-13.27-2,6.58,6.58,0,0,1-3.52-4.17c-.63-2.15-.9-4.4-1.34-6.61-.07-.36-.18-.71-.36-1.38-1,1.82-1.71,3.4-2.64,4.84a62.6,62.6,0,0,1-4.19,5.88,9,9,0,0,1-5.81,2.75,14.69,14.69,0,0,1-11.14-2.43c-2.12-1.51-2.75-3.8-3.4-6.08a31.67,31.67,0,0,1-.68-11.87,85.22,85.22,0,0,1,1.89-10.21A43.52,43.52,0,0,1,93.71,96.3a26.65,26.65,0,0,1,7.84-9.47c3.81-2.68,8.06-3,12.54-2.14a24.76,24.76,0,0,1,8.8,3.63c.52.34,1,.26,1.17-.42.12-.37.33-.7.47-1.07.76-1.9,1.45-2.41,3.49-2.44a27,27,0,0,1,10.84,2.11c1.66.69,2,1.57,1.31,3.28-1.6,4-3.27,8.07-4.77,12.16-1.16,3.18-2.14,6.42-3.11,9.67a93.86,93.86,0,0,0-2.45,9.13,70.12,70.12,0,0,0-.92,8.82,4.67,4.67,0,0,0,.75,2.3c.56,1.06,1.93,1.25,3.2.61a13.44,13.44,0,0,0,5.1-5.21,71.48,71.48,0,0,0,7.17-14.64c1.11-3.13,1.89-6.38,2.81-9.57.77-2.66,1.49-5.33,2.33-8,.76-2.37,1.76-4.67,2.47-7a2.81,2.81,0,0,1,2.7-2.18A24.47,24.47,0,0,1,167.21,88c1.53.67,1.76,1.53,1.16,3.07-1.61,4.09-3.3,8.15-4.8,12.28-1.16,3.22-2.16,6.5-3.09,9.8a92.09,92.09,0,0,0-2.35,9.64,36.13,36.13,0,0,0-.36,7.57c.1,2.22,2,3.08,4,2a14,14,0,0,0,5-5.18A66.2,66.2,0,0,0,174.1,112c.68-2.14,1.27-4.33,2-6.46,1-2.86,2.13-5.68,3.19-8.53.44-1.2.91-2.4,1.25-3.64a1.47,1.47,0,0,0-.36-1.23c-3-2.76-3.05-6.29-2.47-9.86a43.16,43.16,0,0,1,1.79-5.66A3.9,3.9,0,0,1,182,74.13c2.87-1.24,7.53.06,9.05,2.74a3.89,3.89,0,0,1,.31,2.78c-.89,2.85-2,5.65-3.05,8.45-.47,1.25-.28,1.6,1,1.76a10.58,10.58,0,0,0,8.77-2.72,2.81,2.81,0,0,1,3.14-.55,23.78,23.78,0,0,1,9.22,6.22,4.55,4.55,0,0,1,1,5.13c-1.2,3.29-2.07,6.69-3.14,10-1,3.15-2.24,6.24-3.15,9.41-1.09,3.82-2,7.69-2.87,11.56a4.31,4.31,0,0,0,.09,1.85c.44,2,1.78,2.56,3.62,1.71,2.72-1.25,4.4-3.54,6-5.9a83.84,83.84,0,0,0,7.51-14.36c.68-1.58.93-3.35,1.52-5a82.62,82.62,0,0,1,3.14-8,30.2,30.2,0,0,1,8.21-10.52c3.71-3,7.85-4.84,12.74-4.25A15.75,15.75,0,0,1,255.9,90c2.4,2.94,2.79,5.68.83,9.34a31.94,31.94,0,0,1-3.26,4.54,2.07,2.07,0,0,1-3.2.25c-1.7-1.59-1.76-2.46-.78-4.18a24.86,24.86,0,0,0,1.62-3.47,3.75,3.75,0,0,0-1.05-4.27c-.95-.73-2.66-.61-4.07.27a14.76,14.76,0,0,0-4.43,5.06,48.61,48.61,0,0,0-5.48,12.72c-1.37,4.8-2.43,9.71-2,14.77a13,13,0,0,0,1.65,6,5.84,5.84,0,0,0,5.57,2.75,14.17,14.17,0,0,0,8.88-3.46,38.65,38.65,0,0,0,9-11.27,59.39,59.39,0,0,0,3.35-6.67,51.56,51.56,0,0,0,1.59-6c.88-3.31,1.7-6.64,2.66-9.93s2-6.39,3.08-9.55c.81-2.31.94-2.73,3.64-2.8a24.14,24.14,0,0,1,11,2.13c1.49.7,1.83,1.54,1.25,3-1.53,3.86-3.19,7.69-4.58,11.61s-2.65,8-3.8,12a100,100,0,0,0-2.46,10.22,41.72,41.72,0,0,0-.3,7,2.6,2.6,0,0,0,1.62,2.52,2.33,2.33,0,0,0,2.68-1,36.9,36.9,0,0,0,4.15-5.48c3.24-5.93,6.41-11.91,9.32-18,3.13-6.56,5.94-13.28,8.87-19.94a15.46,15.46,0,0,0,.79-2.19,2.3,2.3,0,0,1,2.34-1.76,24.67,24.67,0,0,1,12,2.14,1.93,1.93,0,0,1,1.15,2.87c-1.23,3.16-2.57,6.27-3.74,9.44s-2.25,6.38-3.29,9.6c-.87,2.71-1.71,5.43-2.42,8.18-1.1,4.27-2.15,8.56-1.85,13,.08,1.25.34,2.51,1.57,3.06s2.45-.11,3.46-.88a17.56,17.56,0,0,0,4.94-6.15c2.14-4.19,4.16-8.43,6.16-12.69a12.85,12.85,0,0,0,.84-3c1-5.12,2-10.26,3.07-15.36.45-2.13,1.1-4.22,1.74-6.31.29-.94,0-1.27-.93-1.33-2.26-.16-4.52-.43-6.78-.55-1.07-.06-1.33-.54-1.23-1.5a4.74,4.74,0,0,1,4.21-4.09c2-.14,4-.26,6-.52a1.8,1.8,0,0,0,1.19-1q1.83-5,3.5-10.15a3,3,0,0,1,2.87-2.29,26.4,26.4,0,0,1,11.54,2.1c1.75.73,1.91,1.59,1.23,3.38-1,2.5-1.81,5.05-2.63,7.61a1.13,1.13,0,0,0,.53,1,23.63,23.63,0,0,0,2.39.53c1.7.42,3.4.84,5.08,1.32a1.66,1.66,0,0,1,1.21,2A9.74,9.74,0,0,1,353,90.49c-1.24,1.1-2.58.84-4,.44s-2.85-.82-4.3-1.11a1.28,1.28,0,0,0-1.07.64c-1,3.28-1.95,6.57-2.86,9.87s-1.78,6.46-2.52,9.73a90.64,90.64,0,0,0-1.69,9.08c-.4,3.39-.47,6.83-.67,10.25a2.53,2.53,0,0,0,.07.82c.51,1.88,1.65,3.51,4.32,2.08s4-3.84,5.54-6.2a12.2,12.2,0,0,0,1.68-5.73,25.06,25.06,0,0,1,1.43-5.52,2.2,2.2,0,0,1,1.46-1.08,2.28,2.28,0,0,0,1.83-1.72q1.93-5.67,3.95-11.32c1.24-3.48,2.55-6.94,3.8-10.42a17.56,17.56,0,0,1,8.36-8.41,3.32,3.32,0,0,1,2.41-.12,20.12,20.12,0,0,1,8.44,8.33,1.76,1.76,0,0,1-.19,1.65c-3.16,3.17-2.5,6.75-1.19,10.36,1.65,4.53,3.51,9,5.08,13.54a19.93,19.93,0,0,1,.87,10.63,14,14,0,0,1-5.63,8.49,21.25,21.25,0,0,1-15.59,4.11,16.74,16.74,0,0,1-11.77-6.25c-.29-.37-.51-.79-.85-1.31-1.05,1.52-1.86,2.65-2.61,3.82a8.41,8.41,0,0,1-6.8,3.77,24.38,24.38,0,0,1-13.16-2,7.91,7.91,0,0,1-4-4.93c-.41-1.27-.7-2.59-1.16-4.3-.68,1.1-1.19,1.94-1.71,2.77-1,1.65-2,3.32-3.11,4.94a8.3,8.3,0,0,1-6.55,3.55,23.65,23.65,0,0,1-13-2,7.2,7.2,0,0,1-4-5.35c-.42-2.41-.49-4.88-.73-7.32a2.51,2.51,0,0,0-.47-1.37c-1.05,2-2,4-3.15,5.93-1.75,3.08-3.32,6.35-6.51,8.25A16.43,16.43,0,0,1,271,138.7a12.11,12.11,0,0,1-6.57-3.07A8.92,8.92,0,0,1,262,131c-.25-1.24-.53-2.48-.87-4.07l-1.75,2.37a25,25,0,0,1-11,8.8,20,20,0,0,1-10.58,1.27,37,37,0,0,1-9.91-3,14,14,0,0,1-7.35-8.64,2.63,2.63,0,0,0-.21-.67,6.78,6.78,0,0,0-.69-.73,3.9,3.9,0,0,0-.66.69,46.77,46.77,0,0,1-6.32,9.09,6.91,6.91,0,0,1-4,2.19,28.08,28.08,0,0,1-13.23-.66,8.26,8.26,0,0,1-6-6.81,25.9,25.9,0,0,1-.1-9.77c.6-3.34,1-6.72,1.7-10,.65-3,1.61-6,2.47-9C194.1,99.72,194.8,97.5,195.54,95Zm-95.69,33.4.23.09c.16,1,.27,1.93.48,2.87.35,1.6,1.77,2.13,3,1a17.17,17.17,0,0,0,2.81-3.1c4.16-6.21,6.89-13.14,9.76-20,1.75-4.15,3.24-8.41,4.87-12.61,1-2.57,1-2.71-.71-3.89-2.94-2-5.06-1.82-7.29.78a40.63,40.63,0,0,0-6.61,11.74,113.66,113.66,0,0,0-3.81,11C101.45,120.34,100.74,124.41,99.85,128.43Zm261.8-26.38c-.44,1-.78,1.71-1,2.43q-1.74,5-3.44,10a2,2,0,0,0,.52,2.43c1.14,1.06,1.18,1.82.55,3.27a11.66,11.66,0,0,0-.52,9A6.28,6.28,0,0,0,365,133c3.44-.93,4.77-3.66,5.44-6.7a16.3,16.3,0,0,0-1.56-10.81c-1.75-3.61-3.69-7.11-5.56-10.66C362.81,104,362.29,103.15,361.65,102.05Z"/><path class="cls-1" d="M70.14,145.26a11.74,11.74,0,0,1-4.87-1.93c-2.67-1.76-4.84-4-5.69-7.15a8.21,8.21,0,0,1-.28-3.33c.41-2.74,1-5.45,1.6-8.15.53-2.31,1.16-4.6,1.76-6.9.39-1.47.75-3,1.2-4.4s.31-1.87-1.26-1.77c-4.09.25-8.19.55-12.29.83a1.9,1.9,0,0,0-1.77,1.42c-1.53,3.91-3.07,7.82-4.69,11.69-1.43,3.41-2.87,6.82-4.5,10.13-1.48,3-3.22,5.86-4.89,8.75a2.58,2.58,0,0,1-2.73,1.15,14,14,0,0,1-10.08-5.23,5.55,5.55,0,0,1-1.27-4.69c.07-.34.31-.84.57-.9,2.74-.72,4.22-2.89,5.7-5A86.33,86.33,0,0,0,35,114.56a4.1,4.1,0,0,0,.13-.73,20.68,20.68,0,0,0-2.09,0c-3.81.35-5.44-2.3-6.22-5.11a17.83,17.83,0,0,1-.48-3.11c-.08-.82.41-1.18,1.19-.93,3.22,1.06,6.59.67,9.88,1a1.63,1.63,0,0,0,1.88-1.21Q41.17,99.32,43,94.08c1.12-3.19,2.21-6.4,3.24-9.62.84-2.63,1.61-5.29,2.33-7.95a74.57,74.57,0,0,0,1.84-7.61,72.42,72.42,0,0,0,.92-9.06c.09-2.46-1.76-3.71-4.23-3.47-6,.6-11.16,3.34-16,6.73A67.11,67.11,0,0,0,13.72,80.89,32.31,32.31,0,0,0,9.34,90a14.33,14.33,0,0,0-.41,3.59c0,.91-.41,1.23-1.23,1C1.82,93.14-1.08,89,.37,82.78,1.9,76.2,5.76,70.93,10.1,66A65.14,65.14,0,0,1,29.49,50.74,30.56,30.56,0,0,1,41,47.26,20.07,20.07,0,0,1,55.7,52.1c2.94,2.43,5.26,5.45,5.84,9.19a39,39,0,0,1,0,9.66A68.71,68.71,0,0,1,59.75,80c-.73,3-1.61,6-2.5,9-1,3.32-2.06,6.61-3.12,9.91-.56,1.74-1.17,3.47-1.8,5.18-.41,1.13-.26,1.45.93,1.46,3.87,0,7.74,0,11.62,0a1.31,1.31,0,0,0,1.49-1.11c1.35-4.59,2.77-9.16,4.19-13.73,1.3-4.16,2.63-8.31,4-12.46,1.25-3.89,2.39-7.82,3.81-11.65,1.89-5.14,4-10.21,6-15.29a16.57,16.57,0,0,1,1.57-3.12,2,2,0,0,1,1.6-.76c3.87.51,6,3,7.48,6.44.9,2.09.34,4.06-.26,6-1.06,3.5-2.18,7-3.33,10.46-1,3.1-2.12,6.19-3.17,9.28s-2.07,6.2-3.12,9.3S83,95.3,81.92,98.47c-.82,2.47-1.61,5-2.41,7.44s-1.68,5.18-2.5,7.78-1.6,5.13-2.34,7.71c-.93,3.22-1.9,6.43-2.65,9.69-1,4.44-2.35,8.85-1.79,13.5A2.75,2.75,0,0,1,70.14,145.26Z"/><g id="uv8a9O"><path class="cls-1" d="M154.79,52.08c-3.67,1.35-7.22,2.64-10.77,4a11.07,11.07,0,0,1-14.27-14.67,11.1,11.1,0,0,1,15.71-5.24,11,11,0,0,1,4.74,5.49c.76,1.85,1.79,2.3,3.67,1.6.8-.29,1.85-.39,2.32-1s.35-1.63.48-2.47c1.27-8.5,2.56-17,3.81-25.49A17.69,17.69,0,0,1,171.64,0l-6,38.85,36.83-13.72a17,17,0,0,1-1.74,5.19,17.6,17.6,0,0,1-10,8.62c-8.66,3.15-17.3,6.35-25.95,9.51a.93.93,0,0,0-.74.91c-.07.71-.22,1.41-.33,2.12a2.36,2.36,0,0,0,2.12,3,10.86,10.86,0,0,1,5.41,2.46A11.09,11.09,0,0,1,158.47,75,10.93,10.93,0,0,1,153.06,64c.5-3.75,1.1-7.49,1.66-11.24C154.75,52.6,154.76,52.4,154.79,52.08Zm14.46,17.5a6.65,6.65,0,0,0-1-9.34,6.7,6.7,0,1,0-8.36,10.46A6.7,6.7,0,0,0,169.25,69.58ZM134.76,41.5A6.69,6.69,0,1,0,145.11,50a6.82,6.82,0,0,0-.85-9.33A6.7,6.7,0,0,0,134.76,41.5Z"/></g></svg>