<?xml version="1.0" encoding="utf-8"?>
<!-- Generator: Adobe Illustrator 25.2.0, SVG Export Plug-In . SVG Version: 6.00 Build 0)  -->
<svg version="1.1" id="Layer_1" xmlns="http://www.w3.org/2000/svg" xmlns:xlink="http://www.w3.org/1999/xlink" x="0px" y="0px"
	 viewBox="0 0 384.1 145.6" style="enable-background:new 0 0 384.1 145.6;" xml:space="preserve">
<style type="text/css">
	.st0{fill:#AA1A6C;}
</style>
<g>
	<g>
		<path class="st0" d="M195.5,95c-0.5,0-0.9-0.1-1.1,0c-2.5,0.6-5,0.6-7.6,0c-1-0.2-1.2,0.5-1.4,1c-0.6,1.4-1.1,2.9-1.6,4.4
			c-1.1,2.9-2.1,5.8-3.2,8.7c-0.1,0.3-0.4,0.7-0.3,1c0.3,2.2-1,4-1.7,5.9c-1.4,3.6-3,7.2-4.7,10.7c-1.5,3-3.3,5.8-5,8.7
			c-1.5,2.3-3.8,3.4-6.5,3.6c-4.5,0.4-8.9,0-13-2c-2.4-1.2-3.5-3.3-4.2-5.8c-0.2-0.7-0.6-1.4-0.9-2c-0.4,0.6-0.9,1.1-1.3,1.7
			c-1.1,1.6-2.2,3.3-3.3,4.9c-1.4,2.1-3.6,2.9-5.9,3.1c-4.6,0.5-9.1,0-13.3-2c-1.8-0.9-3-2.3-3.5-4.2c-0.6-2.2-0.9-4.4-1.3-6.6
			c-0.1-0.4-0.2-0.7-0.4-1.4c-1,1.8-1.7,3.4-2.6,4.8c-1.3,2-2.7,4-4.2,5.9c-1.5,1.8-3.6,2.4-5.8,2.8c-4,0.6-7.8,0-11.1-2.4
			c-2.1-1.5-2.8-3.8-3.4-6.1c-1.1-3.9-1.1-7.9-0.7-11.9c0.3-3.4,1.1-6.8,1.9-10.2c0.9-4,2.5-7.7,4.4-11.3c2-3.7,4.4-7,7.8-9.5
			c3.8-2.7,8.1-3,12.5-2.1c3.2,0.6,6.1,1.9,8.8,3.6c0.5,0.3,1,0.3,1.2-0.4c0.1-0.4,0.3-0.7,0.5-1.1c0.8-1.9,1.4-2.4,3.5-2.4
			c3.8,0,7.4,0.7,10.8,2.1c1.7,0.7,2,1.6,1.3,3.3c-1.6,4.1-3.3,8.1-4.8,12.2c-1.2,3.2-2.1,6.4-3.1,9.7c-0.9,3-1.9,6-2.5,9.1
			c-0.6,2.9-0.7,5.9-0.9,8.8c0,0.8,0.4,1.6,0.7,2.3c0.6,1.1,1.9,1.2,3.2,0.6c2.3-1.2,3.8-3.1,5.1-5.2c2.9-4.6,5.4-9.5,7.2-14.6
			c1.1-3.1,1.9-6.4,2.8-9.6c0.8-2.7,1.5-5.3,2.3-8c0.8-2.4,1.8-4.7,2.5-7c0.4-1.5,1.4-2.1,2.7-2.2c4.1-0.3,8,0.5,11.8,2.1
			c1.5,0.7,1.8,1.5,1.2,3.1c-1.6,4.1-3.3,8.2-4.8,12.3c-1.2,3.2-2.2,6.5-3.1,9.8c-0.9,3.2-1.8,6.4-2.3,9.6c-0.4,2.5-0.5,5-0.4,7.6
			c0.1,2.2,2,3.1,4,2c2.2-1.2,3.7-3.1,5-5.2c3-4.8,5.6-9.8,7.3-15.2c0.7-2.1,1.3-4.3,2-6.5c1-2.9,2.1-5.7,3.2-8.5
			c0.4-1.2,0.9-2.4,1.3-3.6c0.1-0.4-0.1-1-0.4-1.2c-3-2.8-3.1-6.3-2.5-9.9c0.3-1.9,1.2-3.8,1.8-5.7c0.4-1.3,1.3-2,2.5-2.5
			c2.9-1.2,7.5,0.1,9.1,2.7c0.4,0.8,0.6,1.9,0.3,2.8c-0.9,2.9-2,5.7-3,8.5c-0.5,1.2-0.3,1.6,1,1.8c3.3,0.4,6.3-0.4,8.8-2.7
			c1-0.9,2-1,3.1-0.5c3.5,1.4,6.6,3.4,9.2,6.2c1.4,1.5,1.8,3.1,1,5.1c-1.2,3.3-2.1,6.7-3.1,10c-1,3.1-2.2,6.2-3.1,9.4
			c-1.1,3.8-2,7.7-2.9,11.6c-0.1,0.6-0.1,1.3,0.1,1.9c0.4,2,1.8,2.6,3.6,1.7c2.7-1.3,4.4-3.5,6-5.9c3.1-4.5,5.4-9.4,7.5-14.4
			c0.7-1.6,0.9-3.4,1.5-5c1-2.7,1.9-5.4,3.1-8c2-4.1,4.7-7.7,8.2-10.5c3.7-3,7.9-4.8,12.7-4.2c4.2,0.5,8,2.2,10.7,5.6
			c2.4,2.9,2.8,5.7,0.8,9.3c-0.9,1.6-2.1,3.1-3.3,4.5c-0.9,1.1-2.2,1.2-3.2,0.2c-1.7-1.6-1.8-2.5-0.8-4.2c0.6-1.1,1.2-2.3,1.6-3.5
			c0.6-1.6,0.1-3.4-1.1-4.3c-0.9-0.7-2.7-0.6-4.1,0.3c-2,1.2-3.2,3.1-4.4,5.1c-2.5,4-4.2,8.3-5.5,12.7c-1.4,4.8-2.4,9.7-2,14.8
			c0.2,2.1,0.5,4.2,1.6,6c1.3,2.1,3.2,2.8,5.6,2.8c3.4-0.1,6.3-1.4,8.9-3.5c3.8-3.1,6.6-7,9-11.3c1.2-2.2,2.4-4.4,3.3-6.7
			c0.8-1.9,1.1-4,1.6-6c0.9-3.3,1.7-6.6,2.7-9.9c0.9-3.2,2-6.4,3.1-9.6c0.8-2.3,0.9-2.7,3.6-2.8c3.8-0.1,7.6,0.5,11.1,2.1
			c1.5,0.7,1.8,1.5,1.3,3c-1.5,3.9-3.2,7.7-4.6,11.6c-1.4,4-2.6,8-3.8,12c-1,3.4-1.9,6.8-2.5,10.2c-0.4,2.3-0.3,4.7-0.3,7
			c0,1.1,0.5,2.1,1.6,2.5c1.1,0.4,2-0.2,2.7-1c1.5-1.8,3.1-3.5,4.2-5.5c3.2-5.9,6.4-11.9,9.3-18c3.1-6.6,5.9-13.3,8.9-19.9
			c0.3-0.7,0.6-1.4,0.8-2.2c0.3-1.2,1.2-1.7,2.3-1.8c4.2-0.3,8.2,0.4,12,2.1c1.4,0.6,1.7,1.5,1.1,2.9c-1.2,3.2-2.6,6.3-3.7,9.4
			c-1.2,3.2-2.2,6.4-3.3,9.6c-0.9,2.7-1.7,5.4-2.4,8.2c-1.1,4.3-2.2,8.6-1.9,13c0.1,1.3,0.3,2.5,1.6,3.1c1.3,0.6,2.5-0.1,3.5-0.9
			c2.1-1.6,3.7-3.8,4.9-6.2c2.1-4.2,4.2-8.4,6.2-12.7c0.4-0.9,0.6-2,0.8-3c1-5.1,2-10.3,3.1-15.4c0.4-2.1,1.1-4.2,1.7-6.3
			c0.3-0.9,0-1.3-0.9-1.3c-2.3-0.2-4.5-0.4-6.8-0.6c-1.1-0.1-1.3-0.5-1.2-1.5c0.2-2.1,2.1-3.9,4.2-4.1c2-0.1,4-0.3,6-0.5
			c0.4-0.1,1-0.6,1.2-1c1.2-3.4,2.4-6.8,3.5-10.2c0.5-1.4,1.4-2.2,2.9-2.3c4-0.2,7.9,0.5,11.5,2.1c1.7,0.7,1.9,1.6,1.2,3.4
			c-1,2.5-1.8,5.1-2.6,7.6c-0.1,0.3,0.3,0.9,0.5,1c0.8,0.3,1.6,0.3,2.4,0.5c1.7,0.4,3.4,0.8,5.1,1.3c1,0.3,1.4,1.1,1.2,2
			c-0.4,2.2-1.4,4.2-3.2,5.7c-1.2,1.1-2.6,0.8-4,0.4c-1.4-0.4-2.8-0.8-4.3-1.1c-0.3-0.1-1,0.3-1.1,0.6c-1,3.3-2,6.6-2.9,9.9
			c-0.9,3.2-1.8,6.5-2.5,9.7c-0.7,3-1.3,6-1.7,9.1c-0.4,3.4-0.5,6.8-0.7,10.3c0,0.3,0,0.6,0.1,0.8c0.5,1.9,1.6,3.5,4.3,2.1
			c2.6-1.4,4-3.8,5.5-6.2c1.1-1.8,1.5-3.7,1.7-5.7c0.2-1.9,0.8-3.7,1.4-5.5c0.2-0.5,0.9-1,1.5-1.1c1-0.2,1.5-0.8,1.8-1.7
			c1.3-3.8,2.6-7.6,3.9-11.3c1.2-3.5,2.6-6.9,3.8-10.4c1-2.9,3-4.9,5.5-6.7c0.9-0.7,1.9-1.3,2.9-1.7c0.7-0.3,1.8-0.5,2.4-0.1
			c3.6,1.9,6.5,4.7,8.4,8.3c0.2,0.4,0.1,1.3-0.2,1.7c-3.2,3.2-2.5,6.7-1.2,10.4c1.6,4.5,3.5,9,5.1,13.5c1.2,3.4,1.6,7,0.9,10.6
			c-0.7,3.5-2.8,6.4-5.6,8.5c-4.6,3.4-9.9,4.8-15.6,4.1c-4.7-0.5-8.8-2.4-11.8-6.2c-0.3-0.4-0.5-0.8-0.9-1.3c-1,1.5-1.9,2.7-2.6,3.8
			c-1.6,2.5-4,3.5-6.8,3.8c-4.6,0.4-9,0-13.2-2c-2.1-1-3.3-2.8-4-4.9c-0.4-1.3-0.7-2.6-1.2-4.3c-0.7,1.1-1.2,1.9-1.7,2.8
			c-1,1.7-2,3.3-3.1,4.9c-1.5,2.3-3.9,3.3-6.6,3.6c-4.5,0.5-8.9,0-13-2.1c-2.2-1.1-3.6-3-4-5.4c-0.4-2.4-0.5-4.9-0.7-7.3
			c0-0.5-0.1-0.9-0.5-1.4c-1,2-2,4-3.2,5.9c-1.7,3.1-3.3,6.3-6.5,8.2c-3.7,2.2-7.7,2.5-11.9,1.7c-2.4-0.5-4.7-1.3-6.6-3.1
			c-1.3-1.3-2.1-2.9-2.5-4.7c-0.3-1.2-0.5-2.5-0.9-4.1c-0.7,1-1.2,1.7-1.8,2.4c-2.9,3.9-6.4,7.1-11,8.8c-3.4,1.3-6.9,1.9-10.6,1.3
			c-3.4-0.6-6.8-1.5-9.9-3c-3.7-1.8-6.1-4.8-7.4-8.6c-0.1-0.2-0.1-0.5-0.2-0.7c-0.2-0.3-0.5-0.5-0.7-0.7c-0.2,0.2-0.5,0.4-0.7,0.7
			c-1.8,3.2-3.8,6.3-6.3,9.1c-1.1,1.2-2.5,1.9-4,2.2c-4.4,0.8-8.9,0.7-13.2-0.7c-3.3-1-5.3-3.3-6-6.8c-0.7-3.3-0.7-6.5-0.1-9.8
			c0.6-3.3,1-6.7,1.7-10c0.7-3,1.6-6,2.5-9C194.1,99.7,194.8,97.5,195.5,95z M99.9,128.4c0.1,0,0.2,0.1,0.2,0.1
			c0.2,1,0.3,1.9,0.5,2.9c0.4,1.6,1.8,2.1,3,1c1-0.9,2-2,2.8-3.1c4.2-6.2,6.9-13.1,9.8-20c1.7-4.2,3.2-8.4,4.9-12.6
			c1-2.6,1-2.7-0.7-3.9c-2.9-2-5.1-1.8-7.3,0.8c-3,3.5-5,7.5-6.6,11.7c-1.4,3.6-2.8,7.3-3.8,11C101.5,120.3,100.7,124.4,99.9,128.4z
			 M361.7,102c-0.4,1-0.8,1.7-1,2.4c-1.2,3.3-2.3,6.6-3.4,10c-0.3,0.9-0.3,1.7,0.5,2.4c1.1,1.1,1.2,1.8,0.5,3.3
			c-1.3,2.9-1.6,5.9-0.5,9c1,2.9,4.4,4.7,7.2,3.9c3.4-0.9,4.8-3.7,5.4-6.7c0.8-3.7,0.1-7.4-1.6-10.8c-1.7-3.6-3.7-7.1-5.6-10.7
			C362.8,104,362.3,103.2,361.7,102z"/>
		<path class="st0" d="M70.1,145.3c-1.8-0.3-3.4-1-4.9-1.9c-2.7-1.8-4.8-4-5.7-7.1c-0.3-1.1-0.4-2.3-0.3-3.3c0.4-2.7,1-5.4,1.6-8.1
			c0.5-2.3,1.2-4.6,1.8-6.9c0.4-1.5,0.7-2.9,1.2-4.4c0.5-1.5,0.3-1.9-1.3-1.8c-4.1,0.3-8.2,0.6-12.3,0.8c-0.9,0.1-1.4,0.5-1.8,1.4
			c-1.5,3.9-3.1,7.8-4.7,11.7c-1.4,3.4-2.9,6.8-4.5,10.1c-1.5,3-3.2,5.9-4.9,8.7c-0.6,1-1.6,1.3-2.7,1.1c-4.1-0.4-7.5-2-10.1-5.2
			c-1.1-1.4-1.6-2.9-1.3-4.7c0.1-0.3,0.3-0.8,0.6-0.9c2.7-0.7,4.2-2.9,5.7-5c3.4-4.8,6-9.9,8.3-15.2c0.1-0.1,0.1-0.3,0.1-0.7
			c-0.8,0-1.4-0.1-2.1,0c-3.8,0.4-5.4-2.3-6.2-5.1c-0.3-1-0.4-2.1-0.5-3.1c-0.1-0.8,0.4-1.2,1.2-0.9c3.2,1.1,6.6,0.7,9.9,1
			c1,0.1,1.6-0.4,1.9-1.2c1.3-3.5,2.5-6.9,3.8-10.4c1.1-3.2,2.2-6.4,3.2-9.6c0.8-2.6,1.6-5.3,2.3-8c0.7-2.5,1.4-5,1.8-7.6
			c0.5-3,0.8-6,0.9-9.1c0.1-2.5-1.8-3.7-4.2-3.5c-6,0.6-11.2,3.3-16,6.7c-6.9,4.8-12.7,10.8-17.4,17.8c-1.9,2.8-3.4,5.8-4.4,9.1
			C9,91.2,9,92.4,8.9,93.6c0,0.9-0.4,1.2-1.2,1C1.8,93.1-1.1,89,0.4,82.8c1.5-6.6,5.4-11.9,9.7-16.8c5.5-6.3,11.9-11.4,19.4-15.2
			c3.6-1.8,7.4-3.2,11.5-3.5c5.5-0.4,10.5,1.3,14.7,4.8c2.9,2.4,5.3,5.4,5.8,9.2c0.5,3.1,0.3,6.5,0,9.7c-0.3,3-1.1,6.1-1.8,9.1
			c-0.7,3-1.6,6-2.5,9c-1,3.3-2.1,6.6-3.1,9.9c-0.6,1.7-1.2,3.5-1.8,5.2c-0.4,1.1-0.3,1.5,0.9,1.5c3.9,0,7.7,0,11.6,0
			c0.8,0,1.2-0.3,1.5-1.1c1.4-4.6,2.8-9.2,4.2-13.7c1.3-4.2,2.6-8.3,4-12.5c1.2-3.9,2.4-7.8,3.8-11.6c1.9-5.1,4-10.2,6-15.3
			c0.4-1.1,0.9-2.2,1.6-3.1c0.3-0.4,1.1-0.8,1.6-0.8c3.9,0.5,6,3,7.5,6.4c0.9,2.1,0.3,4.1-0.3,6c-1.1,3.5-2.2,7-3.3,10.5
			c-1,3.1-2.1,6.2-3.2,9.3c-1,3.1-2.1,6.2-3.1,9.3c-1.1,3.2-2.2,6.3-3.2,9.5c-0.8,2.5-1.6,5-2.4,7.4c-0.8,2.6-1.7,5.2-2.5,7.8
			c-0.8,2.6-1.6,5.1-2.3,7.7c-0.9,3.2-1.9,6.4-2.6,9.7c-1,4.4-2.4,8.8-1.8,13.5C70.3,144.8,70.2,145,70.1,145.3z"/>
	</g>
	<g id="uv8a9O_1_">
		<g>
			<path class="st0" d="M154.8,52.1c-3.7,1.3-7.2,2.6-10.8,4c-3.3,1.2-6.6,1.1-9.7-0.7c-4.7-2.8-6.9-8.6-4.6-13.9
				c2.6-6.1,10-8.5,15.7-5.2c2.2,1.3,3.8,3.1,4.7,5.5c0.8,1.8,1.8,2.3,3.7,1.6c0.8-0.3,1.9-0.4,2.3-1c0.5-0.6,0.4-1.6,0.5-2.5
				c1.3-8.5,2.6-17,3.8-25.5c0.5-3.1,1.5-5.9,3.4-8.4c2-2.6,4.6-4.6,7.8-5.9c-2,13-4,25.8-6,38.9c12.3-4.6,24.5-9.1,36.8-13.7
				c-0.3,1.9-0.9,3.6-1.7,5.2c-2.2,4.2-5.6,7-10,8.6c-8.7,3.1-17.3,6.3-26,9.5c-0.5,0.2-0.7,0.4-0.7,0.9c-0.1,0.7-0.2,1.4-0.3,2.1
				c-0.2,1.6,0.5,2.7,2.1,3c2,0.3,3.9,1.1,5.4,2.5c4.6,4,4.9,10.2,2.2,14.5c-3.1,4.8-9.6,6.6-14.9,3.6c-3.8-2.2-6-6.4-5.4-11
				c0.5-3.8,1.1-7.5,1.7-11.2C154.7,52.6,154.8,52.4,154.8,52.1z M169.2,69.6c2.3-2.9,1.9-7-1-9.3c-3.2-2.7-7.7-1.4-9.4,0.9
				c-2.4,3.2-1.9,7.2,1.1,9.5C162.7,72.9,167.1,72.5,169.2,69.6z M134.8,41.5c-2.4,2.7-1.9,7.1,0.8,9.3c2.9,2.5,6.9,2.1,9.6-0.8
				c1.9-2.1,2.2-6.7-0.8-9.3C141.2,38.1,136.8,38.8,134.8,41.5z"/>
		</g>
	</g>
</g>
</svg>
